<?xml version="1.0" standalone="no"?>
<!DOCTYPE svg PUBLIC "-//W3C//DTD SVG 20010904//EN"
 "http://www.w3.org/TR/2001/REC-SVG-20010904/DTD/svg10.dtd">
<svg version="1.0" xmlns="http://www.w3.org/2000/svg"
 width="219.000000pt" height="387.000000pt" viewBox="0 0 219.000000 387.000000"
 preserveAspectRatio="xMidYMid meet">
<metadata>
Created by potrace 1.13, written by Peter Selinger 2001-2015
</metadata>
<g transform="translate(0.000000,387.000000) scale(0.100000,-0.100000)"
fill="#000000" stroke="none">
<path d="M2010 3813 c-20 -5 -56 -54 -38 -51 7 2 12 -3 11 -9 -2 -7 -4 -18 -5
-25 -5 -19 -41 -58 -55 -58 -8 0 -13 -10 -11 -28 1 -15 -1 -33 -6 -40 -4 -7
-2 -12 6 -12 8 0 6 -5 -5 -11 -9 -6 -15 -14 -12 -20 8 -12 -8 -12 -21 1 -14
14 -15 -20 -1 -38 7 -9 6 -11 -5 -7 -23 9 -32 -25 -12 -40 13 -9 14 -14 5 -19
-6 -4 -18 -2 -26 4 -16 13 -17 12 -19 -34 -1 -16 -7 -31 -14 -34 -9 -3 -10 -7
-2 -17 8 -10 4 -18 -16 -34 -15 -12 -23 -21 -18 -21 5 0 5 -4 -1 -8 -5 -4 -17
-16 -25 -26 -14 -18 -14 -19 10 -7 21 9 22 9 6 -1 -46 -32 -59 -45 -52 -57 4
-6 12 -8 18 -5 7 4 6 9 -2 14 -7 4 -8 10 -3 13 5 3 15 2 22 -3 10 -6 3 -16
-28 -38 -23 -17 -37 -33 -31 -37 5 -3 10 -11 10 -16 0 -6 -4 -7 -10 -4 -10 6
-25 -39 -17 -52 7 -11 -3 -25 -27 -38 -10 -6 -20 -23 -22 -38 -1 -15 -10 -34
-18 -43 -9 -8 -17 -20 -17 -25 -1 -5 -3 -13 -4 -19 -1 -5 -3 -14 -4 -19 0 -4
-13 -20 -28 -35 -22 -23 -25 -29 -13 -37 13 -8 7 -13 -12 -10 -4 0 -5 -6 -2
-14 4 -8 1 -15 -5 -15 -6 0 -8 -7 -4 -17 5 -12 3 -14 -7 -8 -9 6 -11 4 -5 -5
4 -7 4 -15 -1 -19 -15 -10 -44 -59 -44 -74 0 -8 -7 -20 -15 -27 -8 -7 -12 -16
-9 -21 3 -5 -5 -24 -18 -42 -13 -17 -23 -34 -24 -37 -5 -31 -18 -60 -30 -64
-8 -3 -11 -12 -7 -22 4 -12 3 -15 -5 -10 -7 4 -12 3 -12 -2 0 -5 -9 -30 -20
-56 -12 -25 -19 -47 -18 -48 2 -2 -7 -17 -20 -35 -12 -17 -22 -35 -22 -39 0
-4 -27 -61 -61 -127 -33 -65 -58 -121 -55 -124 2 -3 10 6 17 19 14 27 66 109
119 188 20 30 47 74 60 98 13 23 27 42 31 42 4 0 9 10 13 23 3 12 16 33 28 47
13 14 24 32 26 40 2 7 9 18 16 24 6 6 19 20 26 30 13 18 13 19 0 12 -8 -4 -6
0 4 8 11 9 17 16 13 16 -4 0 1 9 11 20 11 12 28 38 38 58 11 20 24 40 31 45 6
4 14 21 18 38 4 17 13 33 21 36 8 3 14 11 14 19 0 8 11 24 24 35 14 12 22 27
19 35 -2 7 5 19 16 26 12 7 21 20 21 28 0 9 9 22 20 30 11 8 20 22 20 32 0 10
5 18 10 18 6 0 10 7 10 15 0 8 6 15 13 15 8 0 7 4 -3 10 -10 6 -11 10 -2 10 6
0 15 1 20 2 12 2 31 32 25 40 -2 5 2 11 10 14 9 3 13 15 10 32 -3 22 -2 23 5
8 8 -18 9 -18 15 -2 4 10 4 22 1 27 -3 5 -2 9 3 8 25 -4 34 2 28 21 -4 13 -1
22 9 26 9 3 13 10 10 15 -3 5 0 9 6 9 6 0 9 3 7 8 -5 7 17 33 28 32 3 0 8 0
11 0 4 0 2 6 -4 13 -7 8 -7 18 -2 27 6 8 10 12 10 8 0 -5 11 2 25 14 14 12 22
24 19 27 -3 3 -9 -1 -14 -9 -5 -8 -11 -12 -14 -9 -9 9 11 30 31 32 14 1 19 6
16 18 -5 16 29 74 52 91 6 4 6 8 1 8 -5 0 -3 7 4 15 6 8 9 19 6 24 -4 6 2 8
14 6 15 -3 24 3 29 18 5 12 7 25 4 30 -2 4 0 7 6 7 6 0 9 24 7 60 -3 46 -10
69 -31 95 -21 29 -76 68 -87 64 -2 -1 -10 -3 -18 -6z"/>
<path d="M530 1392 c-19 -20 -34 -41 -32 -45 1 -5 -6 -11 -17 -14 -10 -3 -22
-14 -25 -26 -3 -12 -8 -18 -11 -15 -7 7 -55 -35 -55 -48 0 -5 -9 -15 -20 -22
-12 -7 -18 -18 -14 -24 5 -7 2 -9 -9 -5 -16 6 -67 -43 -67 -64 0 -5 -7 -9 -15
-9 -8 0 -15 -5 -15 -10 0 -16 -51 -61 -61 -54 -9 5 -10 0 -13 -36 -1 -8 -9
-14 -19 -12 -12 2 -17 -4 -18 -20 0 -13 -3 -17 -6 -10 -8 20 -22 14 -18 -8 2
-11 1 -19 -3 -19 -22 4 -33 -3 -29 -15 4 -10 1 -13 -9 -9 -8 3 -14 2 -13 -3 4
-21 -2 -35 -11 -29 -12 8 -13 -74 -1 -93 6 -11 10 -10 15 4 3 9 4 19 1 22 -3
3 -5 -1 -5 -8 0 -7 -3 -11 -6 -8 -10 11 19 46 34 40 11 -4 13 -1 7 9 -7 11 -6
12 6 3 20 -15 44 -12 44 6 0 8 4 21 9 29 6 9 5 12 -1 8 -6 -4 -13 2 -16 14 -5
17 -3 18 10 7 14 -11 15 -10 10 12 -4 14 -4 19 -1 13 3 -7 14 -13 24 -13 24 0
43 33 29 47 -7 7 -1 9 18 7 l28 -3 -24 20 -25 20 26 -6 c23 -6 28 -2 43 29 10
20 22 36 27 36 5 0 6 5 3 10 -3 6 -2 10 4 10 5 0 11 -6 14 -12 2 -7 2 -3 1 9
-2 12 1 25 8 29 7 5 9 2 4 -7 -4 -8 2 -3 13 11 16 19 20 20 14 6 -4 -13 -3
-17 5 -12 7 4 12 15 12 26 0 17 25 35 43 31 5 -1 6 3 2 9 -3 5 0 10 7 10 10 0
9 3 -2 10 -11 7 -9 11 14 20 21 8 27 15 23 31 -4 15 4 26 34 44 21 14 44 25
50 25 7 0 10 3 7 6 -4 3 2 14 13 25 11 11 17 24 14 29 -4 6 2 7 12 3 16 -6 16
-5 4 10 -19 24 -32 21 -71 -21z"/>
</g>
</svg>
